# xmcd
#
# Track frame offsets: 
#        150
#        13941
#        24790
#        48257
#        59909
#        76773
#        94585
#        106913
#        117825
#        139888
#        151221
#        169761
#        181608
#
# Disc length: 2718 seconds
#
# Revision: 2
# Processed by: cddbd v1.5.2PL0 Copyright (c) Steve Scherf et al.
# Submitted via: ExactAudioCopy v0.99pb3
#
DISCID=980a9c0d
DTITLE=Mayck e Lyan - Ao Vivo no Tom Brasil SP
DYEAR=2007
DGENRE=Sertanejo
TTITLE0=01 Em Tempo de Avanco/Na Barba do Leao
TTITLE1=02 Viola na Cachola
TTITLE2=03 Admiravel Gado Novo
TTITLE3=04 Defendendo aTradicao
TTITLE4=05 Cobra Venenosa
TTITLE5=06 Travessia do Araguaia
TTITLE6=07 O Preco da Gloria
TTITLE7=08 Luar do Sertao
TTITLE8=09 Pra Nao Te Perder
TTITLE9=10 Modao de Cabra Macho
TTITLE10=11 Pagode - Linha De Frente - Chora Viola
TTITLE11=12 Deixa a Poeira Voar
TTITLE12=13 Cana Verde - Cabelo Loiro - Moreninha Linda
EXTD=
EXTT0=
EXTT1=
EXTT2=
EXTT3=
EXTT4=
EXTT5=
EXTT6=
EXTT7=
EXTT8=
EXTT9=
EXTT10=
EXTT11=
EXTT12=
PLAYORDER=
